<svg xmlns="http://www.w3.org/2000/svg" version="1.1" xmlns:xlink="http://www.w3.org/1999/xlink" xmlns:svgjs="http://svgjs.dev/svgjs" width="900" height="400" preserveAspectRatio="none" viewBox="0 0 900 400"><g mask="url(&quot;#SvgjsMask1152&quot;)" fill="none"><rect width="900" height="400" x="0" y="0" fill="rgba(0, 127, 255, 1)"></rect><path d="M-34.29 265.62L-34.29 265.62" stroke="rgba(0, 81, 162, 1)" stroke-width="1.5"></path><path d="M-34.29 265.62L81.07 274.65" stroke="rgba(0, 81, 162, 1)" stroke-width="1.5"></path><path d="M-34.29 265.62L41.19 383.47" stroke="rgba(0, 81, 162, 1)" stroke-width="1.5"></path><path d="M-34.29 265.62L-59.91 404.84" stroke="rgba(0, 81, 162, 1)" stroke-width="1.5"></path><path d="M-59.91 404.84L-59.91 404.84" stroke="rgba(0, 81, 162, 1)" stroke-width="1.5"></path><path d="M-59.91 404.84L41.19 383.47" stroke="rgba(0, 81, 162, 1)" stroke-width="1.5"></path><path d="M-59.91 404.84L-56.49 532.35" stroke="rgba(0, 81, 162, 1)" stroke-width="1.5"></path><path d="M-59.91 404.84L48.37 501.01" stroke="rgba(0, 81, 162, 1)" stroke-width="1.5"></path><path d="M-59.91 404.84L81.07 274.65" stroke="rgba(0, 81, 162, 1)" stroke-width="1.5"></path><path d="M-56.49 532.35L-56.49 532.35" stroke="rgba(0, 81, 162, 1)" stroke-width="1.5"></path><path d="M-56.49 532.35L48.37 501.01" stroke="rgba(0, 81, 162, 1)" stroke-width="1.5"></path><path d="M-56.49 532.35L41.19 383.47" stroke="rgba(0, 81, 162, 1)" stroke-width="1.5"></path><path d="M-56.49 532.35L164.56 514.91" stroke="rgba(0, 81, 162, 1)" stroke-width="1.5"></path><path d="M-56.49 532.35L148.05 380.32" stroke="rgba(0, 81, 162, 1)" stroke-width="1.5"></path><path d="M81.07 274.65L81.07 274.65" stroke="rgba(0, 81, 162, 1)" stroke-width="1.5"></path><path d="M81.07 274.65L187.45 301.13" stroke="rgba(0, 81, 162, 1)" stroke-width="1.5"></path><path d="M41.19 383.47L41.19 383.47" stroke="rgba(0, 81, 162, 1)" stroke-width="1.5"></path><path d="M41.19 383.47L148.05 380.32" stroke="rgba(0, 81, 162, 1)" stroke-width="1.5"></path><path d="M41.19 383.47L81.07 274.65" stroke="rgba(0, 81, 162, 1)" stroke-width="1.5"></path><path d="M41.19 383.47L48.37 501.01" stroke="rgba(0, 81, 162, 1)" stroke-width="1.5"></path><path d="M48.37 501.01L48.37 501.01" stroke="rgba(0, 81, 162, 1)" stroke-width="1.5"></path><path d="M48.37 501.01L164.56 514.91" stroke="rgba(0, 81, 162, 1)" stroke-width="1.5"></path><path d="M187.45 301.13L187.45 301.13" stroke="rgba(0, 81, 162, 1)" stroke-width="1.5"></path><path d="M187.45 301.13L274.94 302.86" stroke="rgba(0, 81, 162, 1)" stroke-width="1.5"></path><path d="M187.45 301.13L148.05 380.32" stroke="rgba(0, 81, 162, 1)" stroke-width="1.5"></path><path d="M148.05 380.32L148.05 380.32" stroke="rgba(0, 81, 162, 1)" stroke-width="1.5"></path><path d="M164.56 514.91L164.56 514.91" stroke="rgba(0, 81, 162, 1)" stroke-width="1.5"></path><path d="M164.56 514.91L289.23 483.2" stroke="rgba(0, 81, 162, 1)" stroke-width="1.5"></path><path d="M164.56 514.91L148.05 380.32" stroke="rgba(0, 81, 162, 1)" stroke-width="1.5"></path><path d="M164.56 514.91L255 400.95" stroke="rgba(0, 81, 162, 1)" stroke-width="1.5"></path><path d="M164.56 514.91L41.19 383.47" stroke="rgba(0, 81, 162, 1)" stroke-width="1.5"></path><path d="M274.94 302.86L274.94 302.86" stroke="rgba(0, 81, 162, 1)" stroke-width="1.5"></path><path d="M274.94 302.86L255 400.95" stroke="rgba(0, 81, 162, 1)" stroke-width="1.5"></path><path d="M274.94 302.86L367.46 368.79" stroke="rgba(0, 81, 162, 1)" stroke-width="1.5"></path><path d="M274.94 302.86L393.55 270.5" stroke="rgba(0, 81, 162, 1)" stroke-width="1.5"></path><path d="M255 400.95L255 400.95" stroke="rgba(0, 81, 162, 1)" stroke-width="1.5"></path><path d="M255 400.95L289.23 483.2" stroke="rgba(0, 81, 162, 1)" stroke-width="1.5"></path><path d="M255 400.95L148.05 380.32" stroke="rgba(0, 81, 162, 1)" stroke-width="1.5"></path><path d="M255 400.95L367.46 368.79" stroke="rgba(0, 81, 162, 1)" stroke-width="1.5"></path><path d="M255 400.95L187.45 301.13" stroke="rgba(0, 81, 162, 1)" stroke-width="1.5"></path><path d="M289.23 483.2L289.23 483.2" stroke="rgba(0, 81, 162, 1)" stroke-width="1.5"></path><path d="M289.23 483.2L419.09 502.96" stroke="rgba(0, 81, 162, 1)" stroke-width="1.5"></path><path d="M289.23 483.2L367.46 368.79" stroke="rgba(0, 81, 162, 1)" stroke-width="1.5"></path><path d="M366.21 194.58L366.21 194.58" stroke="rgba(0, 81, 162, 1)" stroke-width="1.5"></path><path d="M366.21 194.58L393.55 270.5" stroke="rgba(0, 81, 162, 1)" stroke-width="1.5"></path><path d="M366.21 194.58L478.84 185.8" stroke="rgba(0, 81, 162, 1)" stroke-width="1.5"></path><path d="M366.21 194.58L274.94 302.86" stroke="rgba(0, 81, 162, 1)" stroke-width="1.5"></path><path d="M366.21 194.58L367.46 368.79" stroke="rgba(0, 81, 162, 1)" stroke-width="1.5"></path><path d="M393.55 270.5L393.55 270.5" stroke="rgba(0, 81, 162, 1)" stroke-width="1.5"></path><path d="M393.55 270.5L367.46 368.79" stroke="rgba(0, 81, 162, 1)" stroke-width="1.5"></path><path d="M393.55 270.5L478.84 185.8" stroke="rgba(0, 81, 162, 1)" stroke-width="1.5"></path><path d="M393.55 270.5L521.17 283.16" stroke="rgba(0, 81, 162, 1)" stroke-width="1.5"></path><path d="M393.55 270.5L478.68 417.11" stroke="rgba(0, 81, 162, 1)" stroke-width="1.5"></path><path d="M367.46 368.79L367.46 368.79" stroke="rgba(0, 81, 162, 1)" stroke-width="1.5"></path><path d="M419.09 502.96L419.09 502.96" stroke="rgba(0, 81, 162, 1)" stroke-width="1.5"></path><path d="M419.09 502.96L499.91 489.82" stroke="rgba(0, 81, 162, 1)" stroke-width="1.5"></path><path d="M419.09 502.96L478.68 417.11" stroke="rgba(0, 81, 162, 1)" stroke-width="1.5"></path><path d="M478.84 185.8L478.84 185.8" stroke="rgba(0, 81, 162, 1)" stroke-width="1.5"></path><path d="M478.84 185.8L521.17 283.16" stroke="rgba(0, 81, 162, 1)" stroke-width="1.5"></path><path d="M521.17 283.16L521.17 283.16" stroke="rgba(0, 81, 162, 1)" stroke-width="1.5"></path><path d="M521.17 283.16L630.11 264.99" stroke="rgba(0, 81, 162, 1)" stroke-width="1.5"></path><path d="M521.17 283.16L613.45 383.92" stroke="rgba(0, 81, 162, 1)" stroke-width="1.5"></path><path d="M521.17 283.16L478.68 417.11" stroke="rgba(0, 81, 162, 1)" stroke-width="1.5"></path><path d="M478.68 417.11L478.68 417.11" stroke="rgba(0, 81, 162, 1)" stroke-width="1.5"></path><path d="M478.68 417.11L499.91 489.82" stroke="rgba(0, 81, 162, 1)" stroke-width="1.5"></path><path d="M478.68 417.11L367.46 368.79" stroke="rgba(0, 81, 162, 1)" stroke-width="1.5"></path><path d="M478.68 417.11L613.45 383.92" stroke="rgba(0, 81, 162, 1)" stroke-width="1.5"></path><path d="M499.91 489.82L499.91 489.82" stroke="rgba(0, 81, 162, 1)" stroke-width="1.5"></path><path d="M616.68 -54.94L616.68 -54.94" stroke="rgba(0, 81, 162, 1)" stroke-width="1.5"></path><path d="M616.68 -54.94L708.05 -61.17" stroke="rgba(0, 81, 162, 1)" stroke-width="1.5"></path><path d="M616.68 -54.94L611.22 82.79" stroke="rgba(0, 81, 162, 1)" stroke-width="1.5"></path><path d="M616.68 -54.94L738.02 52.33" stroke="rgba(0, 81, 162, 1)" stroke-width="1.5"></path><path d="M616.68 -54.94L829.02 -40.88" stroke="rgba(0, 81, 162, 1)" stroke-width="1.5"></path><path d="M616.68 -54.94L645.19 190.91" stroke="rgba(0, 81, 162, 1)" stroke-width="1.5"></path><path d="M616.68 -54.94L838.93 60.2" stroke="rgba(0, 81, 162, 1)" stroke-width="1.5"></path><path d="M611.22 82.79L611.22 82.79" stroke="rgba(0, 81, 162, 1)" stroke-width="1.5"></path><path d="M611.22 82.79L645.19 190.91" stroke="rgba(0, 81, 162, 1)" stroke-width="1.5"></path><path d="M611.22 82.79L738.02 52.33" stroke="rgba(0, 81, 162, 1)" stroke-width="1.5"></path><path d="M611.22 82.79L478.84 185.8" stroke="rgba(0, 81, 162, 1)" stroke-width="1.5"></path><path d="M611.22 82.79L743.27 187.6" stroke="rgba(0, 81, 162, 1)" stroke-width="1.5"></path><path d="M645.19 190.91L645.19 190.91" stroke="rgba(0, 81, 162, 1)" stroke-width="1.5"></path><path d="M645.19 190.91L630.11 264.99" stroke="rgba(0, 81, 162, 1)" stroke-width="1.5"></path><path d="M645.19 190.91L743.27 187.6" stroke="rgba(0, 81, 162, 1)" stroke-width="1.5"></path><path d="M630.11 264.99L630.11 264.99" stroke="rgba(0, 81, 162, 1)" stroke-width="1.5"></path><path d="M630.11 264.99L724.38 288.12" stroke="rgba(0, 81, 162, 1)" stroke-width="1.5"></path><path d="M613.45 383.92L613.45 383.92" stroke="rgba(0, 81, 162, 1)" stroke-width="1.5"></path><path d="M613.45 383.92L712.05 374.44" stroke="rgba(0, 81, 162, 1)" stroke-width="1.5"></path><path d="M613.45 383.92L608.27 484.26" stroke="rgba(0, 81, 162, 1)" stroke-width="1.5"></path><path d="M608.27 484.26L608.27 484.26" stroke="rgba(0, 81, 162, 1)" stroke-width="1.5"></path><path d="M608.27 484.26L499.91 489.82" stroke="rgba(0, 81, 162, 1)" stroke-width="1.5"></path><path d="M608.27 484.26L750.49 505.44" stroke="rgba(0, 81, 162, 1)" stroke-width="1.5"></path><path d="M608.27 484.26L478.68 417.11" stroke="rgba(0, 81, 162, 1)" stroke-width="1.5"></path><path d="M708.05 -61.17L708.05 -61.17" stroke="rgba(0, 81, 162, 1)" stroke-width="1.5"></path><path d="M708.05 -61.17L738.02 52.33" stroke="rgba(0, 81, 162, 1)" stroke-width="1.5"></path><path d="M708.05 -61.17L829.02 -40.88" stroke="rgba(0, 81, 162, 1)" stroke-width="1.5"></path><path d="M708.05 -61.17L611.22 82.79" stroke="rgba(0, 81, 162, 1)" stroke-width="1.5"></path><path d="M708.05 -61.17L838.93 60.2" stroke="rgba(0, 81, 162, 1)" stroke-width="1.5"></path><path d="M708.05 -61.17L833.54 142.04" stroke="rgba(0, 81, 162, 1)" stroke-width="1.5"></path><path d="M738.02 52.33L738.02 52.33" stroke="rgba(0, 81, 162, 1)" stroke-width="1.5"></path><path d="M738.02 52.33L838.93 60.2" stroke="rgba(0, 81, 162, 1)" stroke-width="1.5"></path><path d="M738.02 52.33L829.02 -40.88" stroke="rgba(0, 81, 162, 1)" stroke-width="1.5"></path><path d="M738.02 52.33L833.54 142.04" stroke="rgba(0, 81, 162, 1)" stroke-width="1.5"></path><path d="M743.27 187.6L743.27 187.6" stroke="rgba(0, 81, 162, 1)" stroke-width="1.5"></path><path d="M743.27 187.6L833.54 142.04" stroke="rgba(0, 81, 162, 1)" stroke-width="1.5"></path><path d="M743.27 187.6L724.38 288.12" stroke="rgba(0, 81, 162, 1)" stroke-width="1.5"></path><path d="M724.38 288.12L724.38 288.12" stroke="rgba(0, 81, 162, 1)" stroke-width="1.5"></path><path d="M724.38 288.12L712.05 374.44" stroke="rgba(0, 81, 162, 1)" stroke-width="1.5"></path><path d="M712.05 374.44L712.05 374.44" stroke="rgba(0, 81, 162, 1)" stroke-width="1.5"></path><path d="M712.05 374.44L750.49 505.44" stroke="rgba(0, 81, 162, 1)" stroke-width="1.5"></path><path d="M712.05 374.44L630.11 264.99" stroke="rgba(0, 81, 162, 1)" stroke-width="1.5"></path><path d="M712.05 374.44L852.14 378.15" stroke="rgba(0, 81, 162, 1)" stroke-width="1.5"></path><path d="M712.05 374.44L608.27 484.26" stroke="rgba(0, 81, 162, 1)" stroke-width="1.5"></path><path d="M750.49 505.44L750.49 505.44" stroke="rgba(0, 81, 162, 1)" stroke-width="1.5"></path><path d="M750.49 505.44L857.51 496.35" stroke="rgba(0, 81, 162, 1)" stroke-width="1.5"></path><path d="M829.02 -40.88L829.02 -40.88" stroke="rgba(0, 81, 162, 1)" stroke-width="1.5"></path><path d="M829.02 -40.88L838.93 60.2" stroke="rgba(0, 81, 162, 1)" stroke-width="1.5"></path><path d="M838.93 60.2L838.93 60.2" stroke="rgba(0, 81, 162, 1)" stroke-width="1.5"></path><path d="M838.93 60.2L833.54 142.04" stroke="rgba(0, 81, 162, 1)" stroke-width="1.5"></path><path d="M838.93 60.2L946.47 61.71" stroke="rgba(0, 81, 162, 1)" stroke-width="1.5"></path><path d="M833.54 142.04L833.54 142.04" stroke="rgba(0, 81, 162, 1)" stroke-width="1.5"></path><path d="M833.54 142.04L850.88 267.13" stroke="rgba(0, 81, 162, 1)" stroke-width="1.5"></path><path d="M833.54 142.04L946.47 61.71" stroke="rgba(0, 81, 162, 1)" stroke-width="1.5"></path><path d="M850.88 267.13L850.88 267.13" stroke="rgba(0, 81, 162, 1)" stroke-width="1.5"></path><path d="M850.88 267.13L943.37 304.85" stroke="rgba(0, 81, 162, 1)" stroke-width="1.5"></path><path d="M850.88 267.13L852.14 378.15" stroke="rgba(0, 81, 162, 1)" stroke-width="1.5"></path><path d="M852.14 378.15L852.14 378.15" stroke="rgba(0, 81, 162, 1)" stroke-width="1.5"></path><path d="M857.51 496.35L857.51 496.35" stroke="rgba(0, 81, 162, 1)" stroke-width="1.5"></path><path d="M857.51 496.35L931.16 521.25" stroke="rgba(0, 81, 162, 1)" stroke-width="1.5"></path><path d="M857.51 496.35L852.14 378.15" stroke="rgba(0, 81, 162, 1)" stroke-width="1.5"></path><path d="M960.2 -66.6L960.2 -66.6" stroke="rgba(0, 81, 162, 1)" stroke-width="1.5"></path><path d="M960.2 -66.6L946.47 61.71" stroke="rgba(0, 81, 162, 1)" stroke-width="1.5"></path><path d="M960.2 -66.6L829.02 -40.88" stroke="rgba(0, 81, 162, 1)" stroke-width="1.5"></path><path d="M960.2 -66.6L838.93 60.2" stroke="rgba(0, 81, 162, 1)" stroke-width="1.5"></path><path d="M960.2 -66.6L833.54 142.04" stroke="rgba(0, 81, 162, 1)" stroke-width="1.5"></path><path d="M960.2 -66.6L969.67 179.97" stroke="rgba(0, 81, 162, 1)" stroke-width="1.5"></path><path d="M960.2 -66.6L738.02 52.33" stroke="rgba(0, 81, 162, 1)" stroke-width="1.5"></path><path d="M946.47 61.71L946.47 61.71" stroke="rgba(0, 81, 162, 1)" stroke-width="1.5"></path><path d="M946.47 61.71L969.67 179.97" stroke="rgba(0, 81, 162, 1)" stroke-width="1.5"></path><path d="M946.47 61.71L829.02 -40.88" stroke="rgba(0, 81, 162, 1)" stroke-width="1.5"></path><path d="M946.47 61.71L738.02 52.33" stroke="rgba(0, 81, 162, 1)" stroke-width="1.5"></path><path d="M969.67 179.97L969.67 179.97" stroke="rgba(0, 81, 162, 1)" stroke-width="1.5"></path><path d="M969.67 179.97L943.37 304.85" stroke="rgba(0, 81, 162, 1)" stroke-width="1.5"></path><path d="M969.67 179.97L833.54 142.04" stroke="rgba(0, 81, 162, 1)" stroke-width="1.5"></path><path d="M969.67 179.97L850.88 267.13" stroke="rgba(0, 81, 162, 1)" stroke-width="1.5"></path><path d="M969.67 179.97L838.93 60.2" stroke="rgba(0, 81, 162, 1)" stroke-width="1.5"></path><path d="M943.37 304.85L943.37 304.85" stroke="rgba(0, 81, 162, 1)" stroke-width="1.5"></path><path d="M943.37 304.85L965.56 387.24" stroke="rgba(0, 81, 162, 1)" stroke-width="1.5"></path><path d="M943.37 304.85L852.14 378.15" stroke="rgba(0, 81, 162, 1)" stroke-width="1.5"></path><path d="M965.56 387.24L965.56 387.24" stroke="rgba(0, 81, 162, 1)" stroke-width="1.5"></path><path d="M965.56 387.24L852.14 378.15" stroke="rgba(0, 81, 162, 1)" stroke-width="1.5"></path><path d="M965.56 387.24L931.16 521.25" stroke="rgba(0, 81, 162, 1)" stroke-width="1.5"></path><path d="M965.56 387.24L857.51 496.35" stroke="rgba(0, 81, 162, 1)" stroke-width="1.5"></path><path d="M965.56 387.24L850.88 267.13" stroke="rgba(0, 81, 162, 1)" stroke-width="1.5"></path><path d="M965.56 387.24L969.67 179.97" stroke="rgba(0, 81, 162, 1)" stroke-width="1.5"></path><path d="M931.16 521.25L931.16 521.25" stroke="rgba(0, 81, 162, 1)" stroke-width="1.5"></path><path d="M931.16 521.25L852.14 378.15" stroke="rgba(0, 81, 162, 1)" stroke-width="1.5"></path><path d="M931.16 521.25L750.49 505.44" stroke="rgba(0, 81, 162, 1)" stroke-width="1.5"></path><path d="M931.16 521.25L943.37 304.85" stroke="rgba(0, 81, 162, 1)" stroke-width="1.5"></path><circle r="5" cx="-34.29" cy="265.62" fill="rgba(0, 81, 162, 1)"></circle><circle r="5" cx="-59.91" cy="404.84" fill="rgba(0, 81, 162, 1)"></circle><circle r="5" cx="-56.49" cy="532.35" fill="rgba(0, 81, 162, 1)"></circle><circle r="5" cx="81.07" cy="274.65" fill="rgba(0, 81, 162, 1)"></circle><circle r="5" cx="41.19" cy="383.47" fill="rgba(0, 81, 162, 1)"></circle><circle r="5" cx="48.37" cy="501.01" fill="rgba(0, 81, 162, 1)"></circle><circle r="5" cx="187.45" cy="301.13" fill="rgba(0, 81, 162, 1)"></circle><circle r="5" cx="148.05" cy="380.32" fill="rgba(0, 81, 162, 1)"></circle><circle r="5" cx="164.56" cy="514.91" fill="rgba(0, 81, 162, 1)"></circle><circle r="5" cx="274.94" cy="302.86" fill="rgba(0, 81, 162, 1)"></circle><circle r="5" cx="255" cy="400.95" fill="rgba(0, 81, 162, 1)"></circle><circle r="5" cx="289.23" cy="483.2" fill="rgba(0, 81, 162, 1)"></circle><circle r="5" cx="366.21" cy="194.58" fill="rgba(0, 81, 162, 1)"></circle><circle r="5" cx="393.55" cy="270.5" fill="rgba(0, 81, 162, 1)"></circle><circle r="5" cx="367.46" cy="368.79" fill="rgba(0, 81, 162, 1)"></circle><circle r="5" cx="419.09" cy="502.96" fill="rgba(0, 81, 162, 1)"></circle><circle r="5" cx="478.84" cy="185.8" fill="rgba(0, 81, 162, 1)"></circle><circle r="5" cx="521.17" cy="283.16" fill="rgba(0, 81, 162, 1)"></circle><circle r="5" cx="478.68" cy="417.11" fill="rgba(0, 81, 162, 1)"></circle><circle r="5" cx="499.91" cy="489.82" fill="rgba(0, 81, 162, 1)"></circle><circle r="5" cx="616.68" cy="-54.94" fill="rgba(0, 81, 162, 1)"></circle><circle r="5" cx="611.22" cy="82.79" fill="rgba(0, 81, 162, 1)"></circle><circle r="5" cx="645.19" cy="190.91" fill="rgba(0, 81, 162, 1)"></circle><circle r="5" cx="630.11" cy="264.99" fill="rgba(0, 81, 162, 1)"></circle><circle r="5" cx="613.45" cy="383.92" fill="rgba(0, 81, 162, 1)"></circle><circle r="5" cx="608.27" cy="484.26" fill="rgba(0, 81, 162, 1)"></circle><circle r="5" cx="708.05" cy="-61.17" fill="rgba(0, 81, 162, 1)"></circle><circle r="5" cx="738.02" cy="52.33" fill="rgba(0, 81, 162, 1)"></circle><circle r="5" cx="743.27" cy="187.6" fill="rgba(0, 81, 162, 1)"></circle><circle r="5" cx="724.38" cy="288.12" fill="rgba(0, 81, 162, 1)"></circle><circle r="5" cx="712.05" cy="374.44" fill="rgba(0, 81, 162, 1)"></circle><circle r="5" cx="750.49" cy="505.44" fill="rgba(0, 81, 162, 1)"></circle><circle r="5" cx="829.02" cy="-40.88" fill="rgba(0, 81, 162, 1)"></circle><circle r="5" cx="838.93" cy="60.2" fill="rgba(0, 81, 162, 1)"></circle><circle r="5" cx="833.54" cy="142.04" fill="rgba(0, 81, 162, 1)"></circle><circle r="5" cx="850.88" cy="267.13" fill="rgba(0, 81, 162, 1)"></circle><circle r="5" cx="852.14" cy="378.15" fill="rgba(0, 81, 162, 1)"></circle><circle r="5" cx="857.51" cy="496.35" fill="rgba(0, 81, 162, 1)"></circle><circle r="5" cx="960.2" cy="-66.6" fill="rgba(0, 81, 162, 1)"></circle><circle r="5" cx="946.47" cy="61.71" fill="rgba(0, 81, 162, 1)"></circle><circle r="5" cx="969.67" cy="179.97" fill="rgba(0, 81, 162, 1)"></circle><circle r="5" cx="943.37" cy="304.85" fill="rgba(0, 81, 162, 1)"></circle><circle r="5" cx="965.56" cy="387.24" fill="rgba(0, 81, 162, 1)"></circle><circle r="5" cx="931.16" cy="521.25" fill="rgba(0, 81, 162, 1)"></circle><path d="M35.98 496.63L35.98 496.63" stroke="hsl(210.20000000000005, 90.8%, 85.9%)" stroke-width="1.5"></path><path d="M35.98 496.63L34.92 408.72" stroke="hsl(210.20000000000005, 90.8%, 85.9%)" stroke-width="1.5"></path><path d="M35.98 496.63L-78.45 494.24" stroke="hsl(210.20000000000005, 90.8%, 85.9%)" stroke-width="1.5"></path><path d="M35.98 496.63L-44.26 370.95" stroke="hsl(210.20000000000005, 90.8%, 85.9%)" stroke-width="1.5"></path><path d="M35.98 496.63L147.77 396.97" stroke="hsl(210.20000000000005, 90.8%, 85.9%)" stroke-width="1.5"></path><path d="M255.88 489.95L255.88 489.95" stroke="hsl(210.20000000000005, 90.8%, 85.9%)" stroke-width="1.5"></path><path d="M255.88 489.95L271.82 371.29" stroke="hsl(210.20000000000005, 90.8%, 85.9%)" stroke-width="1.5"></path><path d="M255.88 489.95L147.77 396.97" stroke="hsl(210.20000000000005, 90.8%, 85.9%)" stroke-width="1.5"></path><path d="M255.88 489.95L396.74 521.1" stroke="hsl(210.20000000000005, 90.8%, 85.9%)" stroke-width="1.5"></path><path d="M255.88 489.95L378.08 396.13" stroke="hsl(210.20000000000005, 90.8%, 85.9%)" stroke-width="1.5"></path><path d="M255.88 489.95L35.98 496.63" stroke="hsl(210.20000000000005, 90.8%, 85.9%)" stroke-width="1.5"></path><path d="M255.88 489.95L34.92 408.72" stroke="hsl(210.20000000000005, 90.8%, 85.9%)" stroke-width="1.5"></path><path d="M490.05 277.17L490.05 277.17" stroke="hsl(210.20000000000005, 90.8%, 85.9%)" stroke-width="1.5"></path><path d="M490.05 277.17L404.38 280.62" stroke="hsl(210.20000000000005, 90.8%, 85.9%)" stroke-width="1.5"></path><path d="M490.05 277.17L604.95 258.83" stroke="hsl(210.20000000000005, 90.8%, 85.9%)" stroke-width="1.5"></path><path d="M490.05 277.17L510.82 415.42" stroke="hsl(210.20000000000005, 90.8%, 85.9%)" stroke-width="1.5"></path><path d="M510.82 415.42L510.82 415.42" stroke="hsl(210.20000000000005, 90.8%, 85.9%)" stroke-width="1.5"></path><path d="M510.82 415.42L621.65 373.89" stroke="hsl(210.20000000000005, 90.8%, 85.9%)" stroke-width="1.5"></path><path d="M603.85 185.24L603.85 185.24" stroke="hsl(210.20000000000005, 90.8%, 85.9%)" stroke-width="1.5"></path><path d="M603.85 185.24L604.95 258.83" stroke="hsl(210.20000000000005, 90.8%, 85.9%)" stroke-width="1.5"></path><path d="M603.85 185.24L714.86 183.22" stroke="hsl(210.20000000000005, 90.8%, 85.9%)" stroke-width="1.5"></path><path d="M603.85 185.24L490.05 277.17" stroke="hsl(210.20000000000005, 90.8%, 85.9%)" stroke-width="1.5"></path><path d="M603.85 185.24L621.65 373.89" stroke="hsl(210.20000000000005, 90.8%, 85.9%)" stroke-width="1.5"></path><path d="M603.85 185.24L745.62 50.56" stroke="hsl(210.20000000000005, 90.8%, 85.9%)" stroke-width="1.5"></path><path d="M830.81 178.8L830.81 178.8" stroke="hsl(210.20000000000005, 90.8%, 85.9%)" stroke-width="1.5"></path><path d="M830.81 178.8L840.87 274.04" stroke="hsl(210.20000000000005, 90.8%, 85.9%)" stroke-width="1.5"></path><path d="M830.81 178.8L714.86 183.22" stroke="hsl(210.20000000000005, 90.8%, 85.9%)" stroke-width="1.5"></path><path d="M830.81 178.8L837.04 54.8" stroke="hsl(210.20000000000005, 90.8%, 85.9%)" stroke-width="1.5"></path><path d="M830.81 178.8L970.17 188.63" stroke="hsl(210.20000000000005, 90.8%, 85.9%)" stroke-width="1.5"></path><path d="M830.81 178.8L745.62 50.56" stroke="hsl(210.20000000000005, 90.8%, 85.9%)" stroke-width="1.5"></path><path d="M840.87 274.04L840.87 274.04" stroke="hsl(210.20000000000005, 90.8%, 85.9%)" stroke-width="1.5"></path><path d="M840.87 274.04L950.94 291.57" stroke="hsl(210.20000000000005, 90.8%, 85.9%)" stroke-width="1.5"></path><path d="M840.87 274.04L838.01 413.12" stroke="hsl(210.20000000000005, 90.8%, 85.9%)" stroke-width="1.5"></path><path d="M840.87 274.04L943.12 374.94" stroke="hsl(210.20000000000005, 90.8%, 85.9%)" stroke-width="1.5"></path><path d="M819.18 483.16L819.18 483.16" stroke="hsl(210.20000000000005, 90.8%, 85.9%)" stroke-width="1.5"></path><path d="M819.18 483.16L838.01 413.12" stroke="hsl(210.20000000000005, 90.8%, 85.9%)" stroke-width="1.5"></path><path d="M819.18 483.16L743.16 489.01" stroke="hsl(210.20000000000005, 90.8%, 85.9%)" stroke-width="1.5"></path><path d="M819.18 483.16L735.39 379.81" stroke="hsl(210.20000000000005, 90.8%, 85.9%)" stroke-width="1.5"></path><path d="M819.18 483.16L976.82 500.95" stroke="hsl(210.20000000000005, 90.8%, 85.9%)" stroke-width="1.5"></path><path d="M819.18 483.16L943.12 374.94" stroke="hsl(210.20000000000005, 90.8%, 85.9%)" stroke-width="1.5"></path><path d="M819.18 483.16L840.87 274.04" stroke="hsl(210.20000000000005, 90.8%, 85.9%)" stroke-width="1.5"></path><path d="M943.8 -44.71L943.8 -44.71" stroke="hsl(210.20000000000005, 90.8%, 85.9%)" stroke-width="1.5"></path><path d="M943.8 -44.71L976.59 76.3" stroke="hsl(210.20000000000005, 90.8%, 85.9%)" stroke-width="1.5"></path><path d="M943.8 -44.71L837.04 54.8" stroke="hsl(210.20000000000005, 90.8%, 85.9%)" stroke-width="1.5"></path><path d="M943.8 -44.71L748.04 -64.27" stroke="hsl(210.20000000000005, 90.8%, 85.9%)" stroke-width="1.5"></path><path d="M943.8 -44.71L745.62 50.56" stroke="hsl(210.20000000000005, 90.8%, 85.9%)" stroke-width="1.5"></path><path d="M943.8 -44.71L970.17 188.63" stroke="hsl(210.20000000000005, 90.8%, 85.9%)" stroke-width="1.5"></path><path d="M943.8 -44.71L830.81 178.8" stroke="hsl(210.20000000000005, 90.8%, 85.9%)" stroke-width="1.5"></path><path d="M-44.26 370.95L-44.26 370.95" stroke="hsl(210.20000000000005, 90.8%, 85.9%)" stroke-width="1.5"></path><path d="M-44.26 370.95L34.92 408.72" stroke="hsl(210.20000000000005, 90.8%, 85.9%)" stroke-width="1.5"></path><path d="M-44.26 370.95L-78.45 494.24" stroke="hsl(210.20000000000005, 90.8%, 85.9%)" stroke-width="1.5"></path><path d="M-78.45 494.24L-78.45 494.24" stroke="hsl(210.20000000000005, 90.8%, 85.9%)" stroke-width="1.5"></path><path d="M-78.45 494.24L34.92 408.72" stroke="hsl(210.20000000000005, 90.8%, 85.9%)" stroke-width="1.5"></path><path d="M-78.45 494.24L147.77 396.97" stroke="hsl(210.20000000000005, 90.8%, 85.9%)" stroke-width="1.5"></path><path d="M34.92 408.72L34.92 408.72" stroke="hsl(210.20000000000005, 90.8%, 85.9%)" stroke-width="1.5"></path><path d="M34.92 408.72L147.77 396.97" stroke="hsl(210.20000000000005, 90.8%, 85.9%)" stroke-width="1.5"></path><path d="M34.92 408.72L271.82 371.29" stroke="hsl(210.20000000000005, 90.8%, 85.9%)" stroke-width="1.5"></path><path d="M147.77 396.97L147.77 396.97" stroke="hsl(210.20000000000005, 90.8%, 85.9%)" stroke-width="1.5"></path><path d="M147.77 396.97L271.82 371.29" stroke="hsl(210.20000000000005, 90.8%, 85.9%)" stroke-width="1.5"></path><path d="M271.82 371.29L271.82 371.29" stroke="hsl(210.20000000000005, 90.8%, 85.9%)" stroke-width="1.5"></path><path d="M271.82 371.29L378.08 396.13" stroke="hsl(210.20000000000005, 90.8%, 85.9%)" stroke-width="1.5"></path><path d="M271.82 371.29L404.38 280.62" stroke="hsl(210.20000000000005, 90.8%, 85.9%)" stroke-width="1.5"></path><path d="M271.82 371.29L396.74 521.1" stroke="hsl(210.20000000000005, 90.8%, 85.9%)" stroke-width="1.5"></path><path d="M271.82 371.29L490.05 277.17" stroke="hsl(210.20000000000005, 90.8%, 85.9%)" stroke-width="1.5"></path><path d="M404.38 280.62L404.38 280.62" stroke="hsl(210.20000000000005, 90.8%, 85.9%)" stroke-width="1.5"></path><path d="M404.38 280.62L378.08 396.13" stroke="hsl(210.20000000000005, 90.8%, 85.9%)" stroke-width="1.5"></path><path d="M404.38 280.62L510.82 415.42" stroke="hsl(210.20000000000005, 90.8%, 85.9%)" stroke-width="1.5"></path><path d="M404.38 280.62L604.95 258.83" stroke="hsl(210.20000000000005, 90.8%, 85.9%)" stroke-width="1.5"></path><path d="M404.38 280.62L603.85 185.24" stroke="hsl(210.20000000000005, 90.8%, 85.9%)" stroke-width="1.5"></path><path d="M378.08 396.13L378.08 396.13" stroke="hsl(210.20000000000005, 90.8%, 85.9%)" stroke-width="1.5"></path><path d="M378.08 396.13L396.74 521.1" stroke="hsl(210.20000000000005, 90.8%, 85.9%)" stroke-width="1.5"></path><path d="M378.08 396.13L510.82 415.42" stroke="hsl(210.20000000000005, 90.8%, 85.9%)" stroke-width="1.5"></path><path d="M396.74 521.1L396.74 521.1" stroke="hsl(210.20000000000005, 90.8%, 85.9%)" stroke-width="1.5"></path><path d="M396.74 521.1L510.82 415.42" stroke="hsl(210.20000000000005, 90.8%, 85.9%)" stroke-width="1.5"></path><path d="M396.74 521.1L608.99 529.09" stroke="hsl(210.20000000000005, 90.8%, 85.9%)" stroke-width="1.5"></path><path d="M604.95 258.83L604.95 258.83" stroke="hsl(210.20000000000005, 90.8%, 85.9%)" stroke-width="1.5"></path><path d="M604.95 258.83L621.65 373.89" stroke="hsl(210.20000000000005, 90.8%, 85.9%)" stroke-width="1.5"></path><path d="M621.65 373.89L621.65 373.89" stroke="hsl(210.20000000000005, 90.8%, 85.9%)" stroke-width="1.5"></path><path d="M621.65 373.89L735.39 379.81" stroke="hsl(210.20000000000005, 90.8%, 85.9%)" stroke-width="1.5"></path><path d="M608.99 529.09L608.99 529.09" stroke="hsl(210.20000000000005, 90.8%, 85.9%)" stroke-width="1.5"></path><path d="M608.99 529.09L743.16 489.01" stroke="hsl(210.20000000000005, 90.8%, 85.9%)" stroke-width="1.5"></path><path d="M608.99 529.09L510.82 415.42" stroke="hsl(210.20000000000005, 90.8%, 85.9%)" stroke-width="1.5"></path><path d="M608.99 529.09L621.65 373.89" stroke="hsl(210.20000000000005, 90.8%, 85.9%)" stroke-width="1.5"></path><path d="M608.99 529.09L735.39 379.81" stroke="hsl(210.20000000000005, 90.8%, 85.9%)" stroke-width="1.5"></path><path d="M608.99 529.09L819.18 483.16" stroke="hsl(210.20000000000005, 90.8%, 85.9%)" stroke-width="1.5"></path><path d="M748.04 -64.27L748.04 -64.27" stroke="hsl(210.20000000000005, 90.8%, 85.9%)" stroke-width="1.5"></path><path d="M748.04 -64.27L745.62 50.56" stroke="hsl(210.20000000000005, 90.8%, 85.9%)" stroke-width="1.5"></path><path d="M748.04 -64.27L837.04 54.8" stroke="hsl(210.20000000000005, 90.8%, 85.9%)" stroke-width="1.5"></path><path d="M748.04 -64.27L714.86 183.22" stroke="hsl(210.20000000000005, 90.8%, 85.9%)" stroke-width="1.5"></path><path d="M748.04 -64.27L830.81 178.8" stroke="hsl(210.20000000000005, 90.8%, 85.9%)" stroke-width="1.5"></path><path d="M748.04 -64.27L976.59 76.3" stroke="hsl(210.20000000000005, 90.8%, 85.9%)" stroke-width="1.5"></path><path d="M745.62 50.56L745.62 50.56" stroke="hsl(210.20000000000005, 90.8%, 85.9%)" stroke-width="1.5"></path><path d="M745.62 50.56L837.04 54.8" stroke="hsl(210.20000000000005, 90.8%, 85.9%)" stroke-width="1.5"></path><path d="M745.62 50.56L714.86 183.22" stroke="hsl(210.20000000000005, 90.8%, 85.9%)" stroke-width="1.5"></path><path d="M714.86 183.22L714.86 183.22" stroke="hsl(210.20000000000005, 90.8%, 85.9%)" stroke-width="1.5"></path><path d="M714.86 183.22L604.95 258.83" stroke="hsl(210.20000000000005, 90.8%, 85.9%)" stroke-width="1.5"></path><path d="M714.86 183.22L840.87 274.04" stroke="hsl(210.20000000000005, 90.8%, 85.9%)" stroke-width="1.5"></path><path d="M714.86 183.22L837.04 54.8" stroke="hsl(210.20000000000005, 90.8%, 85.9%)" stroke-width="1.5"></path><path d="M735.39 379.81L735.39 379.81" stroke="hsl(210.20000000000005, 90.8%, 85.9%)" stroke-width="1.5"></path><path d="M735.39 379.81L838.01 413.12" stroke="hsl(210.20000000000005, 90.8%, 85.9%)" stroke-width="1.5"></path><path d="M735.39 379.81L743.16 489.01" stroke="hsl(210.20000000000005, 90.8%, 85.9%)" stroke-width="1.5"></path><path d="M735.39 379.81L840.87 274.04" stroke="hsl(210.20000000000005, 90.8%, 85.9%)" stroke-width="1.5"></path><path d="M735.39 379.81L604.95 258.83" stroke="hsl(210.20000000000005, 90.8%, 85.9%)" stroke-width="1.5"></path><path d="M743.16 489.01L743.16 489.01" stroke="hsl(210.20000000000005, 90.8%, 85.9%)" stroke-width="1.5"></path><path d="M743.16 489.01L838.01 413.12" stroke="hsl(210.20000000000005, 90.8%, 85.9%)" stroke-width="1.5"></path><path d="M743.16 489.01L621.65 373.89" stroke="hsl(210.20000000000005, 90.8%, 85.9%)" stroke-width="1.5"></path><path d="M743.16 489.01L943.12 374.94" stroke="hsl(210.20000000000005, 90.8%, 85.9%)" stroke-width="1.5"></path><path d="M837.04 54.8L837.04 54.8" stroke="hsl(210.20000000000005, 90.8%, 85.9%)" stroke-width="1.5"></path><path d="M837.04 54.8L976.59 76.3" stroke="hsl(210.20000000000005, 90.8%, 85.9%)" stroke-width="1.5"></path><path d="M838.01 413.12L838.01 413.12" stroke="hsl(210.20000000000005, 90.8%, 85.9%)" stroke-width="1.5"></path><path d="M838.01 413.12L943.12 374.94" stroke="hsl(210.20000000000005, 90.8%, 85.9%)" stroke-width="1.5"></path><path d="M838.01 413.12L976.82 500.95" stroke="hsl(210.20000000000005, 90.8%, 85.9%)" stroke-width="1.5"></path><path d="M976.59 76.3L976.59 76.3" stroke="hsl(210.20000000000005, 90.8%, 85.9%)" stroke-width="1.5"></path><path d="M976.59 76.3L970.17 188.63" stroke="hsl(210.20000000000005, 90.8%, 85.9%)" stroke-width="1.5"></path><path d="M970.17 188.63L970.17 188.63" stroke="hsl(210.20000000000005, 90.8%, 85.9%)" stroke-width="1.5"></path><path d="M970.17 188.63L950.94 291.57" stroke="hsl(210.20000000000005, 90.8%, 85.9%)" stroke-width="1.5"></path><path d="M970.17 188.63L840.87 274.04" stroke="hsl(210.20000000000005, 90.8%, 85.9%)" stroke-width="1.5"></path><path d="M970.17 188.63L943.12 374.94" stroke="hsl(210.20000000000005, 90.8%, 85.9%)" stroke-width="1.5"></path><path d="M970.17 188.63L837.04 54.8" stroke="hsl(210.20000000000005, 90.8%, 85.9%)" stroke-width="1.5"></path><path d="M950.94 291.57L950.94 291.57" stroke="hsl(210.20000000000005, 90.8%, 85.9%)" stroke-width="1.5"></path><path d="M950.94 291.57L943.12 374.94" stroke="hsl(210.20000000000005, 90.8%, 85.9%)" stroke-width="1.5"></path><path d="M943.12 374.94L943.12 374.94" stroke="hsl(210.20000000000005, 90.8%, 85.9%)" stroke-width="1.5"></path><path d="M943.12 374.94L976.82 500.95" stroke="hsl(210.20000000000005, 90.8%, 85.9%)" stroke-width="1.5"></path><path d="M976.82 500.95L976.82 500.95" stroke="hsl(210.20000000000005, 90.8%, 85.9%)" stroke-width="1.5"></path><path d="M976.82 500.95L950.94 291.57" stroke="hsl(210.20000000000005, 90.8%, 85.9%)" stroke-width="1.5"></path><circle r="25" cx="35.98" cy="496.63" fill="url(&quot;#SvgjsRadialGradient1153&quot;)"></circle><circle r="25" cx="255.88" cy="489.95" fill="url(&quot;#SvgjsRadialGradient1153&quot;)"></circle><circle r="25" cx="490.05" cy="277.17" fill="url(&quot;#SvgjsRadialGradient1153&quot;)"></circle><circle r="25" cx="510.82" cy="415.42" fill="url(&quot;#SvgjsRadialGradient1153&quot;)"></circle><circle r="25" cx="603.85" cy="185.24" fill="url(&quot;#SvgjsRadialGradient1153&quot;)"></circle><circle r="25" cx="830.81" cy="178.8" fill="url(&quot;#SvgjsRadialGradient1153&quot;)"></circle><circle r="25" cx="840.87" cy="274.04" fill="url(&quot;#SvgjsRadialGradient1153&quot;)"></circle><circle r="25" cx="819.18" cy="483.16" fill="url(&quot;#SvgjsRadialGradient1153&quot;)"></circle><circle r="25" cx="943.8" cy="-44.71" fill="url(&quot;#SvgjsRadialGradient1153&quot;)"></circle><circle r="5" cx="-44.26" cy="370.95" fill="#add4fb"></circle><circle r="5" cx="-78.45" cy="494.24" fill="#add4fb"></circle><circle r="5" cx="34.92" cy="408.72" fill="#add4fb"></circle><circle r="5" cx="147.77" cy="396.97" fill="#add4fb"></circle><circle r="5" cx="271.82" cy="371.29" fill="#add4fb"></circle><circle r="5" cx="404.38" cy="280.62" fill="#add4fb"></circle><circle r="5" cx="378.08" cy="396.13" fill="#add4fb"></circle><circle r="5" cx="396.74" cy="521.1" fill="#add4fb"></circle><circle r="5" cx="604.95" cy="258.83" fill="#add4fb"></circle><circle r="5" cx="621.65" cy="373.89" fill="#add4fb"></circle><circle r="5" cx="608.99" cy="529.09" fill="#add4fb"></circle><circle r="5" cx="748.04" cy="-64.27" fill="#add4fb"></circle><circle r="5" cx="745.62" cy="50.56" fill="#add4fb"></circle><circle r="5" cx="714.86" cy="183.22" fill="#add4fb"></circle><circle r="5" cx="735.39" cy="379.81" fill="#add4fb"></circle><circle r="5" cx="743.16" cy="489.01" fill="#add4fb"></circle><circle r="5" cx="837.04" cy="54.8" fill="#add4fb"></circle><circle r="5" cx="838.01" cy="413.12" fill="#add4fb"></circle><circle r="5" cx="976.59" cy="76.3" fill="#add4fb"></circle><circle r="5" cx="970.17" cy="188.63" fill="#add4fb"></circle><circle r="5" cx="950.94" cy="291.57" fill="#add4fb"></circle><circle r="5" cx="943.12" cy="374.94" fill="#add4fb"></circle><circle r="5" cx="976.82" cy="500.95" fill="#add4fb"></circle></g><defs><mask id="SvgjsMask1152"><rect width="900" height="400" fill="#ffffff"></rect></mask><radialGradient id="SvgjsRadialGradient1153"><stop stop-color="#ffffff" offset="0.1"></stop><stop stop-color="rgba(90, 168, 247, 1)" offset="0.2"></stop><stop stop-color="rgba(90, 168, 247, 0)" offset="1"></stop></radialGradient></defs></svg>