<?xml version="1.0" encoding="UTF-8" standalone="no" ?>
<!DOCTYPE svg PUBLIC "-//W3C//DTD SVG 1.1//EN" "http://www.w3.org/Graphics/SVG/1.1/DTD/svg11.dtd">
<svg xmlns="http://www.w3.org/2000/svg" xmlns:xlink="http://www.w3.org/1999/xlink" version="1.1" width="1080" height="1080" viewBox="0 0 1080 1080" xml:space="preserve">
<desc>Created with Fabric.js 5.2.4</desc>
<defs>
</defs>
<g transform="matrix(1 0 0 1 540 540)" id="eb7abd52-32ab-4e36-af49-9545b9bcc450"  >
<rect style="stroke: none; stroke-width: 1; stroke-dasharray: none; stroke-linecap: butt; stroke-dashoffset: 0; stroke-linejoin: miter; stroke-miterlimit: 4; fill: rgb(255,255,255); fill-rule: nonzero; opacity: 1; visibility: hidden;" vector-effect="non-scaling-stroke"  x="-540" y="-540" rx="0" ry="0" width="1080" height="1080" />
</g>
<g transform="matrix(1 0 0 1 540 540)" id="c3024ec5-952e-4748-bd26-6c2d9dc92231"  >
</g>
<g transform="matrix(16.82 0 0 16.82 540 540)" id="9d5dc7f5-7020-45dc-86c5-c172d532e028"  >
<rect style="stroke: rgb(255,255,255); stroke-width: 0; stroke-dasharray: none; stroke-linecap: butt; stroke-dashoffset: 0; stroke-linejoin: miter; stroke-miterlimit: 4; fill: rgb(255,255,255); fill-rule: nonzero; opacity: 1;" vector-effect="non-scaling-stroke"  x="-33.0835" y="-33.0835" rx="0" ry="0" width="66.167" height="66.167" />
</g>
<g transform="matrix(2.1 0 0 2.1 549.98 529.36)"  >
<circle style="stroke: none; stroke-width: 1; stroke-dasharray: none; stroke-linecap: butt; stroke-dashoffset: 0; stroke-linejoin: miter; stroke-miterlimit: 4; fill: rgb(160,97,106); fill-rule: nonzero; opacity: 1;" vector-effect="non-scaling-stroke"  cx="0" cy="0" r="86.34897" />
</g>
<g transform="matrix(2.1 0 0 2.1 526.96 734.12)"  >
<polygon style="stroke: none; stroke-width: 1; stroke-dasharray: none; stroke-linecap: butt; stroke-dashoffset: 0; stroke-linejoin: miter; stroke-miterlimit: 4; fill: rgb(160,97,106); fill-rule: nonzero; opacity: 1;" vector-effect="non-scaling-stroke"  points="-60.5,8.09 -42.5,-37.91 50.5,-51.91 60.5,49.91 -33.5,51.91 -60.5,8.09 " />
</g>
<g transform="matrix(2.1 0 0 2.1 559.51 411.71)"  >
<path style="stroke: none; stroke-width: 1; stroke-dasharray: none; stroke-linecap: butt; stroke-dashoffset: 0; stroke-linejoin: miter; stroke-miterlimit: 4; fill: rgb(47,46,65); fill-rule: nonzero; opacity: 1;" vector-effect="non-scaling-stroke"  transform=" translate(-275.3, -204.85)" d="M 357.94449 276.8613 C 356.82381999999996 281.35095 354.55847 292.04102 351.02068999999995 292.09363 C 348.13045999999997 292.13571 345.36400999999995 245.75897000000003 348.25115999999997 238.08795000000003 C 351.56753999999995 229.27524000000003 342.85229999999996 218.12733000000003 336.28704999999997 212.40475000000004 C 324.48281999999995 202.11535000000003 298.28009 224.20941000000005 271.63586999999995 214.20062000000004 C 270.92954 213.93580000000006 271.07028999999994 213.96560000000005 262.65653 210.60888000000006 C 236.76686999999998 200.27914000000007 235.40592999999998 199.98100000000005 233.92266999999998 199.83367000000007 C 221.37221 198.59200000000007 206.05561999999998 208.86211000000006 199.80120999999997 221.38405000000006 C 193.29952999999998 234.40058000000005 198.73183999999998 245.56511000000006 192.61774999999997 277.0558900000001 C 191.90528999999998 280.7265400000001 190.78636999999998 285.95805000000007 189.02600999999999 286.03523000000007 C 185.80782 286.17552000000006 182.66550999999998 268.9867700000001 181.84255 264.48485000000005 C 178.39462999999998 245.62299000000004 175.07035 227.43810000000005 181.84255 207.01714000000004 C 182.58132999999998 204.78985000000003 187.13413 196.52256000000006 196.20947999999999 180.07915000000003 C 209.28387999999998 156.39090000000002 215.85966 144.50206000000003 217.75985999999997 142.36595000000003 C 231.38844999999998 127.03971000000003 256.19561 113.05861000000003 277.02342999999996 119.01969000000003 C 287.55046999999996 122.03268000000003 285.66295999999994 126.87660000000002 298.57381 131.59074000000004 C 321.58202 139.99131000000003 341.57856999999996 129.71771000000004 345.26635 136.97834000000003 C 347.22005 140.82436000000004 341.75399 143.99520000000004 341.67461 151.34527000000003 C 341.53868 163.95667000000003 357.48884999999996 167.60102000000003 366.81672999999995 180.07913000000002 C 371.83119999999997 186.78732000000002 380.41425999999996 186.85925000000003 357.94444999999996 276.86125000000004 L 357.94447999999994 276.86128 Z" stroke-linecap="round" />
</g>
<g transform="matrix(2.1 0 0 2.1 554.63 908.66)"  >
<path style="stroke: none; stroke-width: 1; stroke-dasharray: none; stroke-linecap: butt; stroke-dashoffset: 0; stroke-linejoin: miter; stroke-miterlimit: 4; fill: rgb(0,127,255); fill-rule: nonzero; opacity: 1;" vector-effect="non-scaling-stroke"  transform=" translate(-272.98, -441.72)" d="M 464.92017 442.61035 C 461.43995 446.52051 457.83008 450.35058 454.09009 454.09082 C 403.8501 504.33008 337.05004999999994 532 266 532 C 204.59009 532 146.36011000000002 511.33008 99.25 473.28027 C 99.21997 473.26074 99.19995 473.24023 99.17017 473.20995999999997 C 92.92017 468.17089999999996 86.87012 462.81055 81.03003 457.15038999999996 C 81.13989 456.27050999999994 81.26001 455.40038999999996 81.38989 454.54004 C 82.20996 448.74024 83.12011 443.20995999999997 84.13989 438.12012 C 92.48998999999999 396.40039 202.3601 352.60059 205.21997 351.45995999999997 C 205.26001 351.45018999999996 205.28002999999998 351.44043 205.28002999999998 351.44043 C 205.28002999999998 351.44043 219.42016999999998 403.56055 280.01000999999997 402.89063 C 321.28002999999995 402.44043 313.28002999999995 351.44043 313.28002999999995 351.44043 C 313.28002999999995 351.44043 313.78002999999995 351.54004 314.71996999999993 351.74023 C 326.6398899999999 354.27049999999997 409.40014999999994 372.45019 442.05004999999994 397.26074 C 451.99999999999994 404.82031 459.1398899999999 420.9209 464.27001999999993 440.12012 C 464.4899899999999 440.94043 464.69994999999994 441.78028 464.9201699999999 442.61035 Z" stroke-linecap="round" />
</g>
</svg>